<svg width="256" height="256" viewBox="0 0 256 256" fill="none" xmlns="http://www.w3.org/2000/svg">
<rect width="256" height="256" fill="black"/>
<path fill-rule="evenodd" clip-rule="evenodd" d="M164.842 42.0026C184.893 47.3614 199.027 59.1443 205.894 74.0557C209.005 79.4586 211.497 85.5846 213.243 92.38C224.012 134.303 202.279 185.829 164.703 207.467C128.376 228.386 90.5407 213.714 78.3339 174.839C41.2783 161.492 27.9933 124.41 48.9269 89.148C71.0337 51.9095 122.931 30.8018 164.842 42.0026ZM130.12 72.8372C150.635 61.0238 171.773 63.8829 185.364 77.9877C193.428 91.2049 193.431 108.425 183.521 125.118C166.419 153.926 126.271 170.255 93.8485 161.59C93.3602 161.459 92.8765 161.324 92.3973 161.184C84.4758 128.878 101.255 89.459 130.12 72.8372ZM198.664 132.97C178.437 163.752 137.599 182.571 100.467 179.539C113.524 198.332 137.297 203.521 160.288 190.282C180.253 178.785 194.437 156.382 198.664 132.97ZM125.302 55.8861C93.3443 74.5273 72.96 114.815 74.4891 152.234C57.2286 138.789 53.0091 115.804 66.1075 93.7395C78.0718 73.5859 101.315 59.5397 125.302 55.8861Z" fill="white"/>
</svg>
