<svg width="354" height="356" viewBox="0 0 354 356" fill="none" xmlns="http://www.w3.org/2000/svg">
<path fill-rule="evenodd" clip-rule="evenodd" d="M251.684 6.00525C291.787 16.7227 320.053 40.2886 333.788 70.1115C340.01 80.9172 344.995 93.1691 348.486 106.76C370.023 190.605 326.559 293.658 251.405 336.935C178.753 378.771 103.081 349.428 78.6679 271.678C4.55669 244.984 -22.0134 170.82 19.8538 100.296C64.0674 25.819 167.861 -16.3964 251.684 6.00525ZM182.241 67.6744C223.271 44.0476 265.545 49.7658 292.729 77.9755C308.856 104.41 308.862 138.85 289.042 172.236C254.838 229.852 174.543 262.51 109.697 245.18C108.72 244.919 107.753 244.648 106.795 244.368C90.9516 179.756 124.511 100.918 182.241 67.6744ZM319.327 187.939C278.873 249.504 197.199 287.143 122.933 281.077C149.049 318.665 196.594 329.043 242.577 302.564C282.507 279.571 310.873 234.764 319.327 187.939ZM172.604 33.7722C108.689 71.0546 67.92 151.63 70.9782 226.468C36.4571 199.577 28.0181 153.607 54.215 109.479C78.1436 69.1717 124.63 41.0794 172.604 33.7722Z" fill="black"/>
</svg>
