<svg width="814" height="154" viewBox="0 0 814 154" fill="none" xmlns="http://www.w3.org/2000/svg">
<path fill-rule="evenodd" clip-rule="evenodd" d="M106.511 2.58668C123.421 7.11767 135.34 17.0806 141.132 29.6887C143.755 34.257 145.857 39.4368 147.329 45.1826C156.411 80.6296 138.083 124.197 106.394 142.493C75.7588 160.18 43.851 147.775 33.5567 114.905C2.30665 103.619 -8.89699 72.2652 8.7569 42.4497C27.4002 10.9633 71.1664 -6.88401 106.511 2.58668ZM77.2296 28.6584C94.5305 18.6698 112.356 21.0873 123.818 33.0134C130.619 44.189 130.621 58.7493 122.264 72.8639C107.841 97.2219 73.9836 111.029 46.6405 103.702C46.2288 103.592 45.8208 103.477 45.4167 103.359C38.7363 76.043 52.8869 42.7127 77.2296 28.6584ZM135.034 79.5026C117.976 105.53 83.537 121.443 52.2218 118.878C63.2338 134.769 83.282 139.157 102.671 127.962C119.508 118.241 131.469 99.2985 135.034 79.5026ZM73.1663 14.3256C46.2153 30.0874 29.0247 64.1521 30.3142 95.7911C15.7579 84.4226 12.1995 64.988 23.2458 46.332C33.3356 29.2914 52.9375 17.4149 73.1663 14.3256ZM426.115 44.0976V120H446.446V44.0976H426.115ZM427.32 30.5436C429.73 32.652 432.742 33.7062 436.356 33.7062C440.071 33.7062 443.083 32.652 445.392 30.5436C447.802 28.3347 449.007 25.5737 449.007 22.2605C449.007 18.9473 447.802 16.2365 445.392 14.1281C443.083 11.9193 440.071 10.8149 436.356 10.8149C432.742 10.8149 429.73 11.9193 427.32 14.1281C425.011 16.2365 423.856 18.9473 423.856 22.2605C423.856 25.5737 425.011 28.3347 427.32 30.5436ZM777.331 121.807C773.415 121.807 769.901 121.305 766.789 120.301C763.777 119.297 761.066 117.942 758.657 116.235C756.347 114.428 754.39 112.42 752.783 110.211L750.524 120H732.452V11.568H752.783V54.6396C755.193 51.1256 758.355 48.214 762.271 45.9048C766.287 43.4952 771.257 42.2904 777.18 42.2904C784.208 42.2904 790.433 44.0474 795.855 47.5614C801.377 50.975 805.694 55.6938 808.806 61.7178C812.019 67.6414 813.626 74.4686 813.626 82.1994C813.626 89.7294 812.019 96.5064 808.806 102.53C805.694 108.554 801.427 113.273 796.005 116.687C790.584 120.1 784.359 121.807 777.331 121.807ZM772.512 104.036C776.528 104.036 780.042 103.133 783.054 101.326C786.166 99.418 788.576 96.8579 790.283 93.645C791.989 90.3318 792.843 86.5166 792.843 82.1994C792.843 77.8822 791.989 74.067 790.283 70.7538C788.576 67.3402 786.166 64.7298 783.054 62.9226C780.042 61.015 776.528 60.0612 772.512 60.0612C768.596 60.0612 765.082 61.015 761.97 62.9226C758.958 64.7298 756.548 67.29 754.741 70.6032C753.034 73.9164 752.181 77.7316 752.181 82.0488C752.181 86.366 753.034 90.2314 754.741 93.645C756.548 96.9582 758.958 99.5184 761.97 101.326C765.082 103.133 768.596 104.036 772.512 104.036ZM667.963 121.807C661.839 121.807 656.568 120.552 652.15 118.042C647.833 115.432 644.52 111.667 642.211 106.747C639.902 101.727 638.747 95.5527 638.747 88.2235V44.0977H659.078V86.1151C659.078 92.2395 660.333 96.8579 662.843 99.9703C665.453 103.083 669.419 104.639 674.74 104.639C678.154 104.639 681.166 103.886 683.776 102.38C686.387 100.774 688.445 98.5145 689.951 95.6029C691.557 92.5909 692.361 88.9263 692.361 84.6091V44.0977H712.541V120H694.77L693.114 107.651C690.905 111.968 687.642 115.432 683.325 118.042C679.007 120.552 673.887 121.807 667.963 121.807ZM599.009 74.3682V120H619.34V14.58H599.009V57.9528H552.925V14.58H532.594V120H552.925V74.3682H599.009ZM501.176 120C495.855 120 491.187 119.197 487.171 117.59C483.255 115.884 480.193 113.123 477.984 109.307C475.775 105.392 474.671 100.071 474.671 93.3438V61.1154H461.719V44.0975H474.671L476.93 23.4653H495.002V44.0975H515.032V61.1154H495.002V93.645C495.002 97.0586 495.755 99.418 497.261 100.723C498.767 102.028 501.327 102.681 504.941 102.681H514.881V120H501.176ZM385.513 120V11.568H405.844V120H385.513ZM286.829 44.0976V153.132H307.16V110.211C309.77 113.825 313.084 116.687 317.1 118.795C321.216 120.803 326.085 121.807 331.708 121.807C338.636 121.807 344.81 120.1 350.232 116.687C355.653 113.273 359.97 108.605 363.183 102.681C366.396 96.6571 368.002 89.8299 368.002 82.1995C368.002 74.5691 366.396 67.792 363.183 61.8684C360.071 55.8444 355.804 51.0754 350.382 47.5614C344.961 44.0474 338.686 42.2904 331.557 42.2904C327.441 42.2904 323.826 42.8928 320.714 44.0976C317.702 45.202 315.092 46.708 312.883 48.6156C310.674 50.4228 308.766 52.4308 307.16 54.6396L304.901 44.0976H286.829ZM337.431 101.326C334.419 103.133 330.905 104.036 326.889 104.036C322.973 104.036 319.459 103.133 316.347 101.326C313.335 99.5185 310.925 96.9583 309.118 93.6451C307.411 90.2315 306.558 86.3661 306.558 82.0489C306.558 77.7317 307.411 73.9164 309.118 70.6032C310.925 67.29 313.335 64.7298 316.347 62.9226C319.459 61.015 322.973 60.0612 326.889 60.0612C330.905 60.0612 334.419 61.015 337.431 62.9226C340.543 64.7298 342.953 67.3402 344.659 70.7538C346.366 74.0671 347.22 77.8823 347.22 82.1995C347.22 86.5167 346.366 90.3319 344.659 93.6451C342.953 96.9583 340.543 99.5185 337.431 101.326ZM232.686 121.807C225.055 121.807 218.228 120.502 212.204 117.892C206.281 115.281 201.562 111.466 198.048 106.446C194.634 101.426 192.877 95.3519 192.777 88.2235H214.313C214.413 91.3359 215.216 94.1471 216.722 96.6571C218.228 99.1671 220.286 101.175 222.897 102.681C225.608 104.087 228.82 104.789 232.535 104.789C235.748 104.789 238.509 104.287 240.818 103.283C243.228 102.179 245.085 100.673 246.39 98.7655C247.696 96.8579 248.348 94.5989 248.348 91.9885C248.348 88.9765 247.595 86.4665 246.089 84.4585C244.684 82.4505 242.676 80.7437 240.065 79.3381C237.555 77.9325 234.593 76.6775 231.18 75.5731C227.867 74.3683 224.353 73.1133 220.638 71.8081C212.305 69.0973 205.929 65.4829 201.512 60.9649C197.194 56.4469 195.036 50.473 195.036 43.0434C195.036 36.7182 196.542 31.2966 199.554 26.7786C202.666 22.2606 206.933 18.7968 212.355 16.3872C217.776 13.9776 223.951 12.7728 230.879 12.7728C238.007 12.7728 244.232 14.0278 249.553 16.5378C254.975 18.9474 259.242 22.4614 262.354 27.0798C265.567 31.6982 267.223 37.1198 267.324 43.3446H245.637C245.537 41.0354 244.834 38.8768 243.529 36.8688C242.324 34.7604 240.617 33.1038 238.409 31.899C236.2 30.5938 233.589 29.9412 230.577 29.9412C227.967 29.8408 225.557 30.2424 223.349 31.146C221.24 32.0496 219.533 33.405 218.228 35.2122C217.023 36.919 216.421 39.0776 216.421 41.688C216.421 44.198 217.023 46.3064 218.228 48.0132C219.533 49.72 221.29 51.2261 223.499 52.5313C225.708 53.7361 228.318 54.8907 231.33 55.9951C234.342 56.9991 237.605 58.0533 241.119 59.1577C246.34 60.9649 251.159 63.1235 255.577 65.6335C259.995 68.0431 263.509 71.2057 266.119 75.1213C268.729 79.0369 270.035 84.2075 270.035 90.6331C270.035 96.1551 268.579 101.275 265.667 105.994C262.756 110.713 258.539 114.528 253.017 117.44C247.595 120.352 240.818 121.807 232.686 121.807Z" fill="black"/>
</svg>
